<svg width="28" height="28" viewBox="0 0 28 28" fill="none" xmlns="http://www.w3.org/2000/svg">
<mask id="mask0_1863_23474" style="mask-type:luminance" maskUnits="userSpaceOnUse" x="1" y="1" width="26" height="26">
<path d="M14 25.6667C15.5324 25.6685 17.05 25.3676 18.4658 24.7812C19.8815 24.1948 21.1674 23.3344 22.2495 22.2495C23.3345 21.1673 24.1948 19.8814 24.7813 18.4657C25.3677 17.05 25.6686 15.5324 25.6667 14C25.6686 12.4676 25.3677 10.95 24.7813 9.53427C24.1948 8.11856 23.3345 6.83267 22.2495 5.75049C21.1674 4.66558 19.8815 3.8052 18.4658 3.21877C17.05 2.63235 15.5324 2.33143 14 2.33332C12.4677 2.33143 10.95 2.63235 9.53434 3.21877C8.11862 3.8052 6.83273 4.66558 5.75055 5.75049C4.66564 6.83267 3.80526 8.11856 3.21883 9.53427C2.63241 10.95 2.33149 12.4676 2.33338 14C2.33149 15.5324 2.63241 17.05 3.21883 18.4657C3.80526 19.8814 4.66564 21.1673 5.75055 22.2495C6.83273 23.3344 8.11862 24.1948 9.53434 24.7812C10.95 25.3676 12.4677 25.6685 14 25.6667Z" fill="white" stroke="black" stroke-width="2.33333" stroke-linejoin="round"/>
<path d="M9.33337 14L12.8334 17.5L19.8334 10.5" stroke="black" stroke-width="2.33333" stroke-linecap="round" stroke-linejoin="round"/>
</mask>
<g mask="url(#mask0_1863_23474)">
<path d="M0.291667 0.291667H27.7083V27.7083H0.291667V0.291667Z" fill="#141414" stroke="#141414" stroke-width="0.583333"/>
</g>
</svg>
